# xmcd
#
# Track frame offsets:
#	150
#	14121
#	29209
#	36912
#	49333
#	67573
#	81949
#	95668
#	111010
#	123101
#	133660
#
# Disc length: 1919 seconds
# Revision: 0
# Processed by: cddbd v1.5.2PL0 Copyright (c) Steve Scherf et al.
# Submitted via: dBpowerAMP V12.0
#
DISCID=97077d0b
DTITLE=King Size Slim - Milk Drunk
DYEAR=2013
DGENRE=Blues
TTITLE0=Milk Drunk
TTITLE1=Wake Up The Town
TTITLE2=Hard Way To Fall
TTITLE3=Roast Beef Blues
TTITLE4=Angel Dear
TTITLE5=Leaving Portsmouth Town
TTITLE6=I Hope It's You
TTITLE7=Rising Spring
TTITLE8=Dark Soul
TTITLE9=Monkey, Where Are You?
TTITLE10=She Lies
EXTD=
EXTT0=
EXTT1=
EXTT2=
EXTT3=
EXTT4=
EXTT5=
EXTT6=
EXTT7=
EXTT8=
EXTT9=
EXTT10=
PLAYORDER=
